<?xml version="1.0" encoding="utf-8"?>
<!-- Generator: Adobe Illustrator 19.0.0, SVG Export Plug-In . SVG Version: 6.00 Build 0)  -->
<svg version="1.1" id="Layer_1" xmlns="http://www.w3.org/2000/svg" xmlns:xlink="http://www.w3.org/1999/xlink" x="0px" y="0px"
	 viewBox="0 0 1751 989" style="enable-background:new 0 0 1751 989;" xml:space="preserve">
<style type="text/css">
	.st0{fill:#D8D2C2;}
	.st1{fill:none;stroke:#4A4947;stroke-width:8;stroke-linecap:round;stroke-linejoin:round;stroke-miterlimit:10;}
</style>
<g id="XMLID_34_">
	<path id="XMLID_38_" class="st0" d="M765.4,499.7c31.9,17,51,43.2,56.5,79c1.5,9.5,1,19,0,28.5c-1.9,23.7-12.9,43.3-29.3,59.6
		c-20.1,19.9-40,40-60.4,59.6c-10.2,9.9-20,20.4-32.8,27.3c-13.3,7.2-27.2,11.9-42.3,13.6c-19.4,2.2-37.8-0.9-55.6-8.7
		c-22.3-9.8-39-25.7-50.5-47c-5.7-10.6-9.9-21.6-10.4-33.8c-1.6-14.2-1.2-28.2,2.6-42.1c5-18.2,14.3-33.9,27.7-47.1
		c23.5-23.2,47-46.3,70.6-69.5c3.6-3.6,7.5-6.9,12.2-10.2c-0.6,5.3-1.2,10-1.7,14.7c-1.8,16.9,0.5,33.5,6.1,49.5
		c1.3,3.7,1.4,6.3-2,8.7c-1.3,0.9-2.2,2.3-3.2,3.4c-0.7,2.1-2.2,3.5-3.7,5c-12.1,12.5-25.3,24-37.4,36.5c-3.3,3.4-6.5,6.9-8.8,11
		c-5.9,10.2-8.6,21-6.3,32.8c0.5,2.8,0.7,5.7,1.2,8.5c6.7,18.7,20.2,29.6,39.6,32.9c17.7,3,32.8-2.8,45.4-15.3
		c13.1-13,26.2-26,39.3-39c2.8-4.5,7-7.6,10.5-11.4c2.6-2.7,5.3-5.3,7.9-8c4.8-4.8,9.7-9.4,14.3-14.4c4.2-4.7,7.2-10.2,9.1-16.2
		c4.7-14.6,2.7-28.3-5.1-41.4c-2.2-3.7-5.7-6.5-8.1-10c-1.4-2.1-3.1-3.9-4.3-6.1c-5.5-10.8-5.6-21.6,0.5-32.2
		c4.6-6.7,11.1-11.6,16.7-17.4C764.1,500,764.7,499.7,765.4,499.7z"/>
	<path id="XMLID_35_" class="st0" d="M835.3,572c-0.8-7.3-2.7-14.4-5.3-21.2c-1.1-2.8-0.8-4.6,1.5-6.8c15.4-15,30.7-30.1,46-45.2
		c5.8-5.8,10.7-12.2,13-20.2c0.2-5.1,2.1-10,1.9-15.1c-0.4-17.8-7.4-32.3-22.7-42c-20.2-12.8-45.3-10.2-62.4,6.9
		c-23.8,23.8-48.5,46.7-71.8,71c-13.3,13.9-16.9,30.6-11,49.1c2.1,6.3,5.3,11.9,9.9,16.7c2.9,3,5.5,6.4,7.4,10.1
		c5.5,10.5,5.4,21-0.1,31.5c-4.3,7.1-10.8,12-16.6,17.6c-2,1.9-3.9,1.5-6.1,0.3c-12.6-7.2-23.8-16.2-32.7-27.8
		c-8.8-11.4-15.2-24.1-18.7-38.1c-0.9-3.7-0.7-7.5-1.4-11.2c-1.5-14-0.9-27.9,2.8-41.6c4.6-17.1,12.8-32.1,25.3-44.6
		c25.5-25.5,50.8-51.1,77.1-75.7c22.9-21.4,50.9-29.9,82.1-26.8c43,4.2,78.5,33.5,90.6,74.4c4.3,14.5,5.1,29.3,3.4,44.3
		c-2.1,23.2-12.6,42.2-28.8,58.5C902.8,552,887,568.4,870.5,584c-10.1,9.6-19.6,20-30.3,29c-1.2,1-2.4,2-4.1,2.1
		c-0.9,0.4-1.8,0.7-1.6-0.9c0.3-2,0.6-4,0.9-6.1c0.6-9.3,0.4-18.5-0.2-27.8C835,577.6,834.1,574.8,835.3,572z"/>
</g>
<g id="XMLID_1_">
	<line id="XMLID_33_" class="st1" x1="979.7" y1="403.5" x2="1094" y2="398.8"/>
	<line id="XMLID_32_" class="st1" x1="950.1" y1="346.2" x2="1019.9" y2="255.6"/>
	<line id="XMLID_31_" class="st1" x1="887.2" y1="332.1" x2="862.7" y2="220.4"/>
</g>
</svg>
